<svg viewBox="0 0 1000 1000" xmlns="http://www.w3.org/2000/svg">
<path d="M120,170 L120,180 z" fill="none" stroke="black" stroke-width="3"/>
<path d="M120,170 L130,170 z" fill="none" stroke="black" stroke-width="3"/>
<path d="M450,20 L450,30 z" fill="none" stroke="black" stroke-width="3"/>
<path d="M450,20 L450,10 z" fill="none" stroke="black" stroke-width="3"/>
<path d="M290,110 L290,100 z" fill="none" stroke="black" stroke-width="3"/>
<path d="M290,110 L290,120 z" fill="none" stroke="black" stroke-width="3"/>
<path d="M390,30 L380,30 z" fill="none" stroke="black" stroke-width="3"/>
<path d="M390,30 L390,40 z" fill="none" stroke="black" stroke-width="3"/>
<path d="M430,40 L430,30 z" fill="none" stroke="black" stroke-width="3"/>
<path d="M430,40 L420,40 z" fill="none" stroke="black" stroke-width="3"/>
<path d="M210,50 L220,50 z" fill="none" stroke="black" stroke-width="3"/>
<path d="M210,50 L200,50 z" fill="none" stroke="black" stroke-width="3"/>
<path d="M180,100 L190,100 z" fill="none" stroke="black" stroke-width="3"/>
<path d="M180,100 L180,110 z" fill="none" stroke="black" stroke-width="3"/>
<path d="M340,40 L340,30 z" fill="none" stroke="black" stroke-width="3"/>
<path d="M340,40 L330,40 z" fill="none" stroke="black" stroke-width="3"/>
<path d="M410,10 L400,10 z" fill="none" stroke="black" stroke-width="3"/>
<path d="M410,10 L420,10 z" fill="none" stroke="black" stroke-width="3"/>
<path d="M370,20 L370,30 z" fill="none" stroke="black" stroke-width="3"/>
<path d="M370,20 L360,20 z" fill="none" stroke="black" stroke-width="3"/>
<path d="M120,180 L120,190 z" fill="none" stroke="black" stroke-width="3"/>
<path d="M120,180 L120,170 z" fill="none" stroke="black" stroke-width="3"/>
<path d="M130,70 L130,80 z" fill="none" stroke="black" stroke-width="3"/>
<path d="M130,70 L130,60 z" fill="none" stroke="black" stroke-width="3"/>
<path d="M400,40 L410,40 z" fill="none" stroke="black" stroke-width="3"/>
<path d="M400,40 L400,50 z" fill="none" stroke="black" stroke-width="3"/>
<path d="M210,160 L220,160 z" fill="none" stroke="black" stroke-width="3"/>
<path d="M210,160 L210,170 z" fill="none" stroke="black" stroke-width="3"/>
<path d="M240,130 L250,130 z" fill="none" stroke="black" stroke-width="3"/>
<path d="M240,130 L240,120 z" fill="none" stroke="black" stroke-width="3"/>
<path d="M450,10 L440,10 z" fill="none" stroke="black" stroke-width="3"/>
<path d="M450,10 L450,20 z" fill="none" stroke="black" stroke-width="3"/>
<path d="M190,170 L200,170 z" fill="none" stroke="black" stroke-width="3"/>
<path d="M190,170 L180,170 z" fill="none" stroke="black" stroke-width="3"/>
<path d="M280,130 L280,120 z" fill="none" stroke="black" stroke-width="3"/>
<path d="M280,130 L270,130 z" fill="none" stroke="black" stroke-width="3"/>
<path d="M130,80 L120,80 z" fill="none" stroke="black" stroke-width="3"/>
<path d="M130,80 L130,70 z" fill="none" stroke="black" stroke-width="3"/>
<path d="M210,130 L220,130 z" fill="none" stroke="black" stroke-width="3"/>
<path d="M210,130 L200,130 z" fill="none" stroke="black" stroke-width="3"/>
<path d="M420,40 L430,40 z" fill="none" stroke="black" stroke-width="3"/>
<path d="M420,40 L420,30 z" fill="none" stroke="black" stroke-width="3"/>
<path d="M180,50 L170,50 z" fill="none" stroke="black" stroke-width="3"/>
<path d="M180,50 L180,60 z" fill="none" stroke="black" stroke-width="3"/>
<path d="M100,90 L100,100 z" fill="none" stroke="black" stroke-width="3"/>
<path d="M100,90 L110,90 z" fill="none" stroke="black" stroke-width="3"/>
<path d="M290,100 L300,100 z" fill="none" stroke="black" stroke-width="3"/>
<path d="M290,100 L290,110 z" fill="none" stroke="black" stroke-width="3"/>
<path d="M200,130 L200,120 z" fill="none" stroke="black" stroke-width="3"/>
<path d="M200,130 L210,130 z" fill="none" stroke="black" stroke-width="3"/>
<path d="M410,30 L410,40 z" fill="none" stroke="black" stroke-width="3"/>
<path d="M410,30 L420,30 z" fill="none" stroke="black" stroke-width="3"/>
<path d="M130,40 L120,40 z" fill="none" stroke="black" stroke-width="3"/>
<path d="M130,40 L140,40 z" fill="none" stroke="black" stroke-width="3"/>
<path d="M230,30 L230,20 z" fill="none" stroke="black" stroke-width="3"/>
<path d="M230,30 L230,40 z" fill="none" stroke="black" stroke-width="3"/>
<path d="M230,140 L220,140 z" fill="none" stroke="black" stroke-width="3"/>
<path d="M230,140 L230,150 z" fill="none" stroke="black" stroke-width="3"/>
<path d="M140,160 L140,170 z" fill="none" stroke="black" stroke-width="3"/>
<path d="M140,160 L150,160 z" fill="none" stroke="black" stroke-width="3"/>
<path d="M410,40 L400,40 z" fill="none" stroke="black" stroke-width="3"/>
<path d="M410,40 L410,30 z" fill="none" stroke="black" stroke-width="3"/>
<path d="M360,10 L350,10 z" fill="none" stroke="black" stroke-width="3"/>
<path d="M360,10 L370,10 z" fill="none" stroke="black" stroke-width="3"/>
<path d="M330,10 L340,10 z" fill="none" stroke="black" stroke-width="3"/>
<path d="M330,10 L320,10 z" fill="none" stroke="black" stroke-width="3"/>
<path d="M240,40 L240,50 z" fill="none" stroke="black" stroke-width="3"/>
<path d="M240,40 L230,40 z" fill="none" stroke="black" stroke-width="3"/>
<path d="M160,50 L160,40 z" fill="none" stroke="black" stroke-width="3"/>
<path d="M160,50 L170,50 z" fill="none" stroke="black" stroke-width="3"/>
<path d="M140,40 L140,30 z" fill="none" stroke="black" stroke-width="3"/>
<path d="M140,40 L130,40 z" fill="none" stroke="black" stroke-width="3"/>
<path d="M130,170 L140,170 z" fill="none" stroke="black" stroke-width="3"/>
<path d="M130,170 L120,170 z" fill="none" stroke="black" stroke-width="3"/>
<path d="M110,90 L110,80 z" fill="none" stroke="black" stroke-width="3"/>
<path d="M110,90 L100,90 z" fill="none" stroke="black" stroke-width="3"/>
<path d="M290,120 L280,120 z" fill="none" stroke="black" stroke-width="3"/>
<path d="M290,120 L290,110 z" fill="none" stroke="black" stroke-width="3"/>
<path d="M200,70 L200,80 z" fill="none" stroke="black" stroke-width="3"/>
<path d="M200,70 L190,70 z" fill="none" stroke="black" stroke-width="3"/>
<path d="M210,80 L220,80 z" fill="none" stroke="black" stroke-width="3"/>
<path d="M210,80 L200,80 z" fill="none" stroke="black" stroke-width="3"/>
<path d="M200,50 L210,50 z" fill="none" stroke="black" stroke-width="3"/>
<path d="M200,50 L190,50 z" fill="none" stroke="black" stroke-width="3"/>
<path d="M390,10 L400,10 z" fill="none" stroke="black" stroke-width="3"/>
<path d="M390,10 L380,10 z" fill="none" stroke="black" stroke-width="3"/>
<path d="M180,170 L180,160 z" fill="none" stroke="black" stroke-width="3"/>
<path d="M180,170 L190,170 z" fill="none" stroke="black" stroke-width="3"/>
<path d="M250,40 L260,40 z" fill="none" stroke="black" stroke-width="3"/>
<path d="M250,40 L250,50 z" fill="none" stroke="black" stroke-width="3"/>
<path d="M220,130 L220,140 z" fill="none" stroke="black" stroke-width="3"/>
<path d="M220,130 L210,130 z" fill="none" stroke="black" stroke-width="3"/>
<path d="M100,170 L100,160 z" fill="none" stroke="black" stroke-width="3"/>
<path d="M100,170 L90,170 z" fill="none" stroke="black" stroke-width="3"/>
<path d="M90,170 L90,180 z" fill="none" stroke="black" stroke-width="3"/>
<path d="M90,170 L100,170 z" fill="none" stroke="black" stroke-width="3"/>
<path d="M310,70 L300,70 z" fill="none" stroke="black" stroke-width="3"/>
<path d="M310,70 L310,60 z" fill="none" stroke="black" stroke-width="3"/>
<path d="M90,120 L90,130 z" fill="none" stroke="black" stroke-width="3"/>
<path d="M90,120 L100,120 z" fill="none" stroke="black" stroke-width="3"/>
<path d="M110,80 L120,80 z" fill="none" stroke="black" stroke-width="3"/>
<path d="M110,80 L110,90 z" fill="none" stroke="black" stroke-width="3"/>
<path d="M340,30 L340,40 z" fill="none" stroke="black" stroke-width="3"/>
<path d="M340,30 L350,30 z" fill="none" stroke="black" stroke-width="3"/>
<path d="M280,120 L280,130 z" fill="none" stroke="black" stroke-width="3"/>
<path d="M280,120 L290,120 z" fill="none" stroke="black" stroke-width="3"/>
<path d="M360,40 L360,30 z" fill="none" stroke="black" stroke-width="3"/>
<path d="M360,40 L350,40 z" fill="none" stroke="black" stroke-width="3"/>
<path d="M240,20 L230,20 z" fill="none" stroke="black" stroke-width="3"/>
<path d="M240,20 L250,20 z" fill="none" stroke="black" stroke-width="3"/>
<path d="M150,20 L150,30 z" fill="none" stroke="black" stroke-width="3"/>
<path d="M150,20 L160,20 z" fill="none" stroke="black" stroke-width="3"/>
<path d="M100,120 L100,110 z" fill="none" stroke="black" stroke-width="3"/>
<path d="M100,120 L90,120 z" fill="none" stroke="black" stroke-width="3"/>
<path d="M420,10 L430,10 z" fill="none" stroke="black" stroke-width="3"/>
<path d="M420,10 L410,10 z" fill="none" stroke="black" stroke-width="3"/>
<path d="M310,40 L310,50 z" fill="none" stroke="black" stroke-width="3"/>
<path d="M310,40 L320,40 z" fill="none" stroke="black" stroke-width="3"/>
<path d="M300,10 L310,10 z" fill="none" stroke="black" stroke-width="3"/>
<path d="M300,10 L290,10 z" fill="none" stroke="black" stroke-width="3"/>
<path d="M100,150 L90,150 z" fill="none" stroke="black" stroke-width="3"/>
<path d="M100,150 L100,160 z" fill="none" stroke="black" stroke-width="3"/>
<path d="M220,50 L210,50 z" fill="none" stroke="black" stroke-width="3"/>
<path d="M220,50 L230,50 z" fill="none" stroke="black" stroke-width="3"/>
<path d="M230,50 L240,50 z" fill="none" stroke="black" stroke-width="3"/>
<path d="M230,50 L220,50 z" fill="none" stroke="black" stroke-width="3"/>
<path d="M440,30 L450,30 z" fill="none" stroke="black" stroke-width="3"/>
<path d="M440,30 L430,30 z" fill="none" stroke="black" stroke-width="3"/>
<path d="M230,20 L240,20 z" fill="none" stroke="black" stroke-width="3"/>
<path d="M230,20 L230,30 z" fill="none" stroke="black" stroke-width="3"/>
<path d="M240,160 L240,150 z" fill="none" stroke="black" stroke-width="3"/>
<path d="M240,160 L240,170 z" fill="none" stroke="black" stroke-width="3"/>
<path d="M210,110 L220,110 z" fill="none" stroke="black" stroke-width="3"/>
<path d="M210,110 L200,110 z" fill="none" stroke="black" stroke-width="3"/>
<path d="M180,110 L190,110 z" fill="none" stroke="black" stroke-width="3"/>
<path d="M180,110 L180,100 z" fill="none" stroke="black" stroke-width="3"/>
<path d="M140,30 L140,40 z" fill="none" stroke="black" stroke-width="3"/>
<path d="M140,30 L150,30 z" fill="none" stroke="black" stroke-width="3"/>
<path d="M320,50 L320,60 z" fill="none" stroke="black" stroke-width="3"/>
<path d="M320,50 L310,50 z" fill="none" stroke="black" stroke-width="3"/>
<path d="M200,80 L210,80 z" fill="none" stroke="black" stroke-width="3"/>
<path d="M200,80 L200,70 z" fill="none" stroke="black" stroke-width="3"/>
<path d="M200,170 L190,170 z" fill="none" stroke="black" stroke-width="3"/>
<path d="M200,170 L210,170 z" fill="none" stroke="black" stroke-width="3"/>
<path d="M220,90 L210,90 z" fill="none" stroke="black" stroke-width="3"/>
<path d="M220,90 L220,80 z" fill="none" stroke="black" stroke-width="3"/>
<path d="M120,190 L110,190 z" fill="none" stroke="black" stroke-width="3"/>
<path d="M120,190 L120,180 z" fill="none" stroke="black" stroke-width="3"/>
<path d="M300,80 L310,80 z" fill="none" stroke="black" stroke-width="3"/>
<path d="M300,80 L290,80 z" fill="none" stroke="black" stroke-width="3"/>
<path d="M380,30 L370,30 z" fill="none" stroke="black" stroke-width="3"/>
<path d="M380,30 L390,30 z" fill="none" stroke="black" stroke-width="3"/>
<path d="M160,40 L160,50 z" fill="none" stroke="black" stroke-width="3"/>
<path d="M160,40 L160,30 z" fill="none" stroke="black" stroke-width="3"/>
<path d="M240,150 L240,160 z" fill="none" stroke="black" stroke-width="3"/>
<path d="M240,150 L230,150 z" fill="none" stroke="black" stroke-width="3"/>
<path d="M230,150 L240,150 z" fill="none" stroke="black" stroke-width="3"/>
<path d="M230,150 L230,140 z" fill="none" stroke="black" stroke-width="3"/>
<path d="M90,190 L90,200 z" fill="none" stroke="black" stroke-width="3"/>
<path d="M90,190 L90,180 z" fill="none" stroke="black" stroke-width="3"/>
<path d="M220,80 L220,90 z" fill="none" stroke="black" stroke-width="3"/>
<path d="M220,80 L210,80 z" fill="none" stroke="black" stroke-width="3"/>
<path d="M260,40 L250,40 z" fill="none" stroke="black" stroke-width="3"/>
<path d="M260,40 L260,50 z" fill="none" stroke="black" stroke-width="3"/>
<path d="M250,20 L250,10 z" fill="none" stroke="black" stroke-width="3"/>
<path d="M250,20 L240,20 z" fill="none" stroke="black" stroke-width="3"/>
<path d="M100,110 L100,100 z" fill="none" stroke="black" stroke-width="3"/>
<path d="M100,110 L100,120 z" fill="none" stroke="black" stroke-width="3"/>
<path d="M210,170 L210,160 z" fill="none" stroke="black" stroke-width="3"/>
<path d="M210,170 L200,170 z" fill="none" stroke="black" stroke-width="3"/>
<path d="M250,50 L250,40 z" fill="none" stroke="black" stroke-width="3"/>
<path d="M250,50 L260,50 z" fill="none" stroke="black" stroke-width="3"/>
<path d="M420,30 L410,30 z" fill="none" stroke="black" stroke-width="3"/>
<path d="M420,30 L420,40 z" fill="none" stroke="black" stroke-width="3"/>
<path d="M190,100 L190,90 z" fill="none" stroke="black" stroke-width="3"/>
<path d="M190,100 L180,100 z" fill="none" stroke="black" stroke-width="3"/>
<path d="M90,180 L90,170 z" fill="none" stroke="black" stroke-width="3"/>
<path d="M90,180 L90,190 z" fill="none" stroke="black" stroke-width="3"/>
<path d="M220,160 L210,160 z" fill="none" stroke="black" stroke-width="3"/>
<path d="M220,160 L230,160 z" fill="none" stroke="black" stroke-width="3"/>
<path d="M230,170 L240,170 z" fill="none" stroke="black" stroke-width="3"/>
<path d="M230,170 L230,160 z" fill="none" stroke="black" stroke-width="3"/>
<path d="M320,10 L330,10 z" fill="none" stroke="black" stroke-width="3"/>
<path d="M320,10 L310,10 z" fill="none" stroke="black" stroke-width="3"/>
<path d="M100,100 L100,110 z" fill="none" stroke="black" stroke-width="3"/>
<path d="M100,100 L100,90 z" fill="none" stroke="black" stroke-width="3"/>
<path d="M220,140 L230,140 z" fill="none" stroke="black" stroke-width="3"/>
<path d="M220,140 L220,130 z" fill="none" stroke="black" stroke-width="3"/>
<path d="M220,110 L210,110 z" fill="none" stroke="black" stroke-width="3"/>
<path d="M220,110 L230,110 z" fill="none" stroke="black" stroke-width="3"/>
<path d="M180,60 L180,50 z" fill="none" stroke="black" stroke-width="3"/>
<path d="M180,60 L190,60 z" fill="none" stroke="black" stroke-width="3"/>
<path d="M300,70 L290,70 z" fill="none" stroke="black" stroke-width="3"/>
<path d="M300,70 L310,70 z" fill="none" stroke="black" stroke-width="3"/>
<path d="M430,30 L440,30 z" fill="none" stroke="black" stroke-width="3"/>
<path d="M430,30 L430,40 z" fill="none" stroke="black" stroke-width="3"/>
<path d="M310,60 L310,70 z" fill="none" stroke="black" stroke-width="3"/>
<path d="M310,60 L320,60 z" fill="none" stroke="black" stroke-width="3"/>
<path d="M230,110 L240,110 z" fill="none" stroke="black" stroke-width="3"/>
<path d="M230,110 L220,110 z" fill="none" stroke="black" stroke-width="3"/>
<path d="M250,10 L260,10 z" fill="none" stroke="black" stroke-width="3"/>
<path d="M250,10 L250,20 z" fill="none" stroke="black" stroke-width="3"/>
<path d="M390,50 L400,50 z" fill="none" stroke="black" stroke-width="3"/>
<path d="M390,50 L390,40 z" fill="none" stroke="black" stroke-width="3"/>
<path d="M360,20 L360,30 z" fill="none" stroke="black" stroke-width="3"/>
<path d="M360,20 L370,20 z" fill="none" stroke="black" stroke-width="3"/>
<path d="M310,80 L300,80 z" fill="none" stroke="black" stroke-width="3"/>
<path d="M310,80 L310,90 z" fill="none" stroke="black" stroke-width="3"/>
<path d="M190,90 L190,80 z" fill="none" stroke="black" stroke-width="3"/>
<path d="M190,90 L190,100 z" fill="none" stroke="black" stroke-width="3"/>
<path d="M400,10 L410,10 z" fill="none" stroke="black" stroke-width="3"/>
<path d="M400,10 L390,10 z" fill="none" stroke="black" stroke-width="3"/>
<path d="M80,140 L80,130 z" fill="none" stroke="black" stroke-width="3"/>
<path d="M80,140 L90,140 z" fill="none" stroke="black" stroke-width="3"/>
<path d="M100,160 L100,170 z" fill="none" stroke="black" stroke-width="3"/>
<path d="M100,160 L100,150 z" fill="none" stroke="black" stroke-width="3"/>
<path d="M340,10 L350,10 z" fill="none" stroke="black" stroke-width="3"/>
<path d="M340,10 L330,10 z" fill="none" stroke="black" stroke-width="3"/>
<path d="M80,130 L80,140 z" fill="none" stroke="black" stroke-width="3"/>
<path d="M80,130 L90,130 z" fill="none" stroke="black" stroke-width="3"/>
<path d="M190,60 L190,50 z" fill="none" stroke="black" stroke-width="3"/>
<path d="M190,60 L180,60 z" fill="none" stroke="black" stroke-width="3"/>
<path d="M350,40 L360,40 z" fill="none" stroke="black" stroke-width="3"/>
<path d="M350,40 L350,30 z" fill="none" stroke="black" stroke-width="3"/>
<path d="M250,130 L260,130 z" fill="none" stroke="black" stroke-width="3"/>
<path d="M250,130 L240,130 z" fill="none" stroke="black" stroke-width="3"/>
<path d="M210,90 L210,100 z" fill="none" stroke="black" stroke-width="3"/>
<path d="M210,90 L220,90 z" fill="none" stroke="black" stroke-width="3"/>
<path d="M310,10 L300,10 z" fill="none" stroke="black" stroke-width="3"/>
<path d="M310,10 L320,10 z" fill="none" stroke="black" stroke-width="3"/>
<path d="M240,170 L230,170 z" fill="none" stroke="black" stroke-width="3"/>
<path d="M240,170 L240,160 z" fill="none" stroke="black" stroke-width="3"/>
<path d="M150,150 L150,160 z" fill="none" stroke="black" stroke-width="3"/>
<path d="M150,150 L160,150 z" fill="none" stroke="black" stroke-width="3"/>
<path d="M360,30 L360,40 z" fill="none" stroke="black" stroke-width="3"/>
<path d="M360,30 L360,20 z" fill="none" stroke="black" stroke-width="3"/>
<path d="M370,10 L380,10 z" fill="none" stroke="black" stroke-width="3"/>
<path d="M370,10 L360,10 z" fill="none" stroke="black" stroke-width="3"/>
<path d="M330,40 L320,40 z" fill="none" stroke="black" stroke-width="3"/>
<path d="M330,40 L340,40 z" fill="none" stroke="black" stroke-width="3"/>
<path d="M320,40 L310,40 z" fill="none" stroke="black" stroke-width="3"/>
<path d="M320,40 L330,40 z" fill="none" stroke="black" stroke-width="3"/>
<path d="M260,130 L250,130 z" fill="none" stroke="black" stroke-width="3"/>
<path d="M260,130 L270,130 z" fill="none" stroke="black" stroke-width="3"/>
<path d="M190,70 L200,70 z" fill="none" stroke="black" stroke-width="3"/>
<path d="M190,70 L190,80 z" fill="none" stroke="black" stroke-width="3"/>
<path d="M390,40 L390,30 z" fill="none" stroke="black" stroke-width="3"/>
<path d="M390,40 L390,50 z" fill="none" stroke="black" stroke-width="3"/>
<path d="M310,90 L310,80 z" fill="none" stroke="black" stroke-width="3"/>
<path d="M310,90 L310,100 z" fill="none" stroke="black" stroke-width="3"/>
<path d="M160,30 L160,20 z" fill="none" stroke="black" stroke-width="3"/>
<path d="M160,30 L160,40 z" fill="none" stroke="black" stroke-width="3"/>
<path d="M90,140 L90,150 z" fill="none" stroke="black" stroke-width="3"/>
<path d="M90,140 L80,140 z" fill="none" stroke="black" stroke-width="3"/>
<path d="M430,10 L440,10 z" fill="none" stroke="black" stroke-width="3"/>
<path d="M430,10 L420,10 z" fill="none" stroke="black" stroke-width="3"/>
<path d="M400,50 L390,50 z" fill="none" stroke="black" stroke-width="3"/>
<path d="M400,50 L400,40 z" fill="none" stroke="black" stroke-width="3"/>
<path d="M150,30 L150,20 z" fill="none" stroke="black" stroke-width="3"/>
<path d="M150,30 L140,30 z" fill="none" stroke="black" stroke-width="3"/>
<path d="M160,160 L160,150 z" fill="none" stroke="black" stroke-width="3"/>
<path d="M160,160 L170,160 z" fill="none" stroke="black" stroke-width="3"/>
<path d="M110,190 L120,190 z" fill="none" stroke="black" stroke-width="3"/>
<path d="M110,190 L100,190 z" fill="none" stroke="black" stroke-width="3"/>
<path d="M380,10 L390,10 z" fill="none" stroke="black" stroke-width="3"/>
<path d="M380,10 L370,10 z" fill="none" stroke="black" stroke-width="3"/>
<path d="M200,120 L200,130 z" fill="none" stroke="black" stroke-width="3"/>
<path d="M200,120 L200,110 z" fill="none" stroke="black" stroke-width="3"/>
<path d="M350,10 L360,10 z" fill="none" stroke="black" stroke-width="3"/>
<path d="M350,10 L340,10 z" fill="none" stroke="black" stroke-width="3"/>
<path d="M120,50 L130,50 z" fill="none" stroke="black" stroke-width="3"/>
<path d="M120,50 L120,40 z" fill="none" stroke="black" stroke-width="3"/>
<path d="M100,200 L90,200 z" fill="none" stroke="black" stroke-width="3"/>
<path d="M100,200 L100,190 z" fill="none" stroke="black" stroke-width="3"/>
<path d="M260,50 L250,50 z" fill="none" stroke="black" stroke-width="3"/>
<path d="M260,50 L260,40 z" fill="none" stroke="black" stroke-width="3"/>
<path d="M130,50 L120,50 z" fill="none" stroke="black" stroke-width="3"/>
<path d="M130,50 L130,60 z" fill="none" stroke="black" stroke-width="3"/>
<path d="M440,10 L430,10 z" fill="none" stroke="black" stroke-width="3"/>
<path d="M440,10 L450,10 z" fill="none" stroke="black" stroke-width="3"/>
<path d="M350,30 L340,30 z" fill="none" stroke="black" stroke-width="3"/>
<path d="M350,30 L350,40 z" fill="none" stroke="black" stroke-width="3"/>
<path d="M320,60 L320,50 z" fill="none" stroke="black" stroke-width="3"/>
<path d="M320,60 L310,60 z" fill="none" stroke="black" stroke-width="3"/>
<path d="M210,100 L200,100 z" fill="none" stroke="black" stroke-width="3"/>
<path d="M210,100 L210,90 z" fill="none" stroke="black" stroke-width="3"/>
<path d="M260,10 L250,10 z" fill="none" stroke="black" stroke-width="3"/>
<path d="M260,10 L270,10 z" fill="none" stroke="black" stroke-width="3"/>
<path d="M180,160 L180,170 z" fill="none" stroke="black" stroke-width="3"/>
<path d="M180,160 L170,160 z" fill="none" stroke="black" stroke-width="3"/>
<path d="M290,80 L300,80 z" fill="none" stroke="black" stroke-width="3"/>
<path d="M290,80 L290,70 z" fill="none" stroke="black" stroke-width="3"/>
<path d="M300,100 L310,100 z" fill="none" stroke="black" stroke-width="3"/>
<path d="M300,100 L290,100 z" fill="none" stroke="black" stroke-width="3"/>
<path d="M280,10 L290,10 z" fill="none" stroke="black" stroke-width="3"/>
<path d="M280,10 L270,10 z" fill="none" stroke="black" stroke-width="3"/>
<path d="M120,80 L130,80 z" fill="none" stroke="black" stroke-width="3"/>
<path d="M120,80 L110,80 z" fill="none" stroke="black" stroke-width="3"/>
<path d="M240,50 L230,50 z" fill="none" stroke="black" stroke-width="3"/>
<path d="M240,50 L240,40 z" fill="none" stroke="black" stroke-width="3"/>
<path d="M170,50 L180,50 z" fill="none" stroke="black" stroke-width="3"/>
<path d="M170,50 L160,50 z" fill="none" stroke="black" stroke-width="3"/>
<path d="M190,110 L200,110 z" fill="none" stroke="black" stroke-width="3"/>
<path d="M190,110 L180,110 z" fill="none" stroke="black" stroke-width="3"/>
<path d="M200,110 L210,110 z" fill="none" stroke="black" stroke-width="3"/>
<path d="M200,110 L200,100 z" fill="none" stroke="black" stroke-width="3"/>
<path d="M200,110 L190,110 z" fill="none" stroke="black" stroke-width="3"/>
<path d="M200,110 L200,120 z" fill="none" stroke="black" stroke-width="3"/>
<path d="M200,100 L210,100 z" fill="none" stroke="black" stroke-width="3"/>
<path d="M200,100 L200,110 z" fill="none" stroke="black" stroke-width="3"/>
<path d="M190,50 L200,50 z" fill="none" stroke="black" stroke-width="3"/>
<path d="M190,50 L190,60 z" fill="none" stroke="black" stroke-width="3"/>
<path d="M310,100 L300,100 z" fill="none" stroke="black" stroke-width="3"/>
<path d="M310,100 L310,90 z" fill="none" stroke="black" stroke-width="3"/>
<path d="M120,40 L120,50 z" fill="none" stroke="black" stroke-width="3"/>
<path d="M120,40 L130,40 z" fill="none" stroke="black" stroke-width="3"/>
<path d="M270,130 L260,130 z" fill="none" stroke="black" stroke-width="3"/>
<path d="M270,130 L280,130 z" fill="none" stroke="black" stroke-width="3"/>
<path d="M190,80 L190,90 z" fill="none" stroke="black" stroke-width="3"/>
<path d="M190,80 L190,70 z" fill="none" stroke="black" stroke-width="3"/>
<path d="M270,10 L280,10 z" fill="none" stroke="black" stroke-width="3"/>
<path d="M270,10 L260,10 z" fill="none" stroke="black" stroke-width="3"/>
<path d="M160,150 L160,160 z" fill="none" stroke="black" stroke-width="3"/>
<path d="M160,150 L150,150 z" fill="none" stroke="black" stroke-width="3"/>
<path d="M290,10 L280,10 z" fill="none" stroke="black" stroke-width="3"/>
<path d="M290,10 L300,10 z" fill="none" stroke="black" stroke-width="3"/>
<path d="M240,120 L240,130 z" fill="none" stroke="black" stroke-width="3"/>
<path d="M240,120 L240,110 z" fill="none" stroke="black" stroke-width="3"/>
<path d="M90,200 L100,200 z" fill="none" stroke="black" stroke-width="3"/>
<path d="M90,200 L90,190 z" fill="none" stroke="black" stroke-width="3"/>
<path d="M240,110 L230,110 z" fill="none" stroke="black" stroke-width="3"/>
<path d="M240,110 L240,120 z" fill="none" stroke="black" stroke-width="3"/>
<path d="M230,40 L240,40 z" fill="none" stroke="black" stroke-width="3"/>
<path d="M230,40 L230,30 z" fill="none" stroke="black" stroke-width="3"/>
<path d="M100,190 L100,200 z" fill="none" stroke="black" stroke-width="3"/>
<path d="M100,190 L110,190 z" fill="none" stroke="black" stroke-width="3"/>
<path d="M310,50 L310,40 z" fill="none" stroke="black" stroke-width="3"/>
<path d="M310,50 L320,50 z" fill="none" stroke="black" stroke-width="3"/>
<path d="M130,60 L130,70 z" fill="none" stroke="black" stroke-width="3"/>
<path d="M130,60 L130,50 z" fill="none" stroke="black" stroke-width="3"/>
<path d="M90,130 L80,130 z" fill="none" stroke="black" stroke-width="3"/>
<path d="M90,130 L90,120 z" fill="none" stroke="black" stroke-width="3"/>
<path d="M160,20 L150,20 z" fill="none" stroke="black" stroke-width="3"/>
<path d="M160,20 L160,30 z" fill="none" stroke="black" stroke-width="3"/>
<path d="M450,30 L440,30 z" fill="none" stroke="black" stroke-width="3"/>
<path d="M450,30 L450,20 z" fill="none" stroke="black" stroke-width="3"/>
<path d="M370,30 L370,20 z" fill="none" stroke="black" stroke-width="3"/>
<path d="M370,30 L380,30 z" fill="none" stroke="black" stroke-width="3"/>
<path d="M150,160 L140,160 z" fill="none" stroke="black" stroke-width="3"/>
<path d="M150,160 L150,150 z" fill="none" stroke="black" stroke-width="3"/>
<path d="M170,160 L160,160 z" fill="none" stroke="black" stroke-width="3"/>
<path d="M170,160 L180,160 z" fill="none" stroke="black" stroke-width="3"/>
<path d="M230,160 L220,160 z" fill="none" stroke="black" stroke-width="3"/>
<path d="M230,160 L230,170 z" fill="none" stroke="black" stroke-width="3"/>
<path d="M290,70 L290,80 z" fill="none" stroke="black" stroke-width="3"/>
<path d="M290,70 L300,70 z" fill="none" stroke="black" stroke-width="3"/>
<path d="M140,170 L140,160 z" fill="none" stroke="black" stroke-width="3"/>
<path d="M140,170 L130,170 z" fill="none" stroke="black" stroke-width="3"/>
<path d="M90,150 L100,150 z" fill="none" stroke="black" stroke-width="3"/>
<path d="M90,150 L90,140 z" fill="none" stroke="black" stroke-width="3"/>
</svg>